<?xml version="1.0" encoding="utf-8"?>
<!-- Generator: Adobe Illustrator 25.4.1, SVG Export Plug-In . SVG Version: 6.00 Build 0)  -->
<svg version="1.1" id="Layer_1" xmlns="http://www.w3.org/2000/svg" xmlns:xlink="http://www.w3.org/1999/xlink" x="0px" y="0px"
	 viewBox="0 0 526.4 118.8" style="enable-background:new 0 0 526.4 118.8;" xml:space="preserve">
<style type="text/css">
	.st0{fill-rule:evenodd;clip-rule:evenodd;fill:#4DBC15;}
	.st1{fill-rule:evenodd;clip-rule:evenodd;}
</style>
<path class="st0" d="M66.4,118.8h39.9V51.3L26.4,28.5V0H0v118.8h39.9V81.4h26.5V118.8z"/>
<path class="st1" d="M336.4,51.9v36.6c0,2.1,0.3,4.2,0.9,6.2c0.6,2,1.5,4,2.8,5.7c1.3,1.7,3,3.2,5,4.2c4.9,2.1,10.5,2.1,15.3,0
	c2-1,3.7-2.4,5-4.2c1.3-1.7,2.2-3.6,2.8-5.7c0.6-2,0.8-4.1,0.9-6.2V52.1h14.7v37.8c0,9.7-3.2,22.5-18.7,28.3
	c-7.9,2.9-16.5,2.9-24.4,0.1c-12.6-4.7-18.8-14.2-18.8-28.3V51.9L336.4,51.9L336.4,51.9z M295.5,60.7c3.2,3.2,5.7,7,7.5,11.1
	c1.8,4.3,2.8,9,2.7,13.7c0,9.3-3.7,18.3-10.3,24.8c-3.2,3.2-7.1,5.7-11.2,7.5c-8.9,3.7-18.9,3.7-27.8,0c-4.2-1.8-8-4.3-11.2-7.5
	c-6.6-6.6-10.3-15.5-10.3-24.8c0-4.7,0.9-9.3,2.7-13.7c5.6-13,18.5-21.5,32.7-21.5C279.8,50.2,288.8,54,295.5,60.7L295.5,60.7z
	 M454.6,52v12.6l-35.2,41h37.1v13.2h-55.8v-12.7l34.9-40.9h-33.7V52L454.6,52L454.6,52z M524.5,52v12.6l-35.2,41h37.1v13.2h-55.8
	v-12.7l34.9-40.9h-33.7V52L524.5,52L524.5,52z M174,28.5v28.1c7.8-6.3,19.9-8,29.8-3.9c10.2,4.2,16.1,13.6,16.1,25.8v40.4h-14.8
	V83.3c0-8.3-4.2-18.1-16.2-18.1c-13,0-14.9,11.3-14.9,18.1v35.5h-14.8V28.5H174z M288.7,94c1.9-5.6,1.9-11.6,0-17.1
	c-0.8-2.4-2.2-4.7-3.9-6.6c-1.7-1.8-3.9-3.3-6.2-4.3c-5.3-2.1-11.3-2.1-16.6,0c-2.3,1-4.5,2.4-6.2,4.3c-1.7,1.9-3.1,4.2-3.9,6.6
	c-1.9,5.6-1.9,11.6,0,17.1c0.8,2.4,2.2,4.7,3.9,6.6c1.7,1.8,3.9,3.3,6.2,4.3c5.3,2.1,11.3,2.1,16.6,0c2.3-1,4.5-2.4,6.2-4.3
	C286.6,98.7,287.9,96.4,288.7,94z"/>
</svg>
